<?xml version="1.0" encoding="UTF-8"?>
<svg id="Layer_1" data-name="Layer 1" xmlns="http://www.w3.org/2000/svg" viewBox="0 0 133.17 149.01">
  <defs>
    <style>
      .cls-1 {
        fill: #9179ce;
        stroke-width: .25px;
      }

      .cls-1, .cls-2 {
        stroke: #9179ce;
        stroke-linecap: round;
        stroke-miterlimit: 10;
      }

      .cls-2 {
        fill: none;
        stroke-width: 12px;
      }
    </style>
  </defs>
  <path class="cls-1" d="m119.33,30.51C107.32,12.09,87.97.12,66.12.12,29.67.12.12,33.43.12,74.5s29.55,74.38,66,74.38c21.84,0,41.2-11.96,53.21-30.39,8.57-12.06,13.71-27.34,13.71-43.99s-5.14-31.94-13.71-43.99Zm-47.65,112.74c-33.69,0-61-30.78-61-68.74S38,5.76,71.69,5.76s61,30.78,61,68.74-27.31,68.74-61,68.74Z"/>
  <g>
    <path class="cls-2" d="m126.6,74.5c0,18.73-9.83,35.16-24.61,44.42"/>
    <path class="cls-2" d="m46.47,30.09c-14.78,9.26-24.61,25.69-24.61,44.41s9.83,35.16,24.61,44.42"/>
    <line class="cls-2" x1="23.03" y1="74.5" x2="125.44" y2="74.5"/>
  </g>
</svg>