<?xml version="1.0" encoding="UTF-8"?>
<svg id="Layer_1" data-name="Layer 1" xmlns="http://www.w3.org/2000/svg" viewBox="0 0 133.42 149.26">
  <defs>
    <style>
      .cls-1 {
        fill: #4d4d4d;
      }

      .cls-1, .cls-2 {
        stroke-width: 0px;
      }

      .cls-3 {
        stroke-width: 12px;
      }

      .cls-3, .cls-4 {
        fill: none;
        stroke: #9179ce;
        stroke-linecap: round;
        stroke-miterlimit: 10;
      }

      .cls-4 {
        stroke-width: .25px;
      }

      .cls-2 {
        fill: #9179ce;
      }
    </style>
  </defs>
  <g>
    <g>
      <ellipse class="cls-1" cx="71.81" cy="74.63" rx="61" ry="68.74"/>
      <path class="cls-2" d="m132.81,74.63c0-37.97-27.31-68.74-61-68.74S10.81,36.66,10.81,74.63s27.31,68.74,61,68.74,61-30.77,61-68.74Zm.36,0c0,16.65-5.14,31.94-13.71,43.99-12.01,18.42-31.37,30.39-53.21,30.39C29.8,149.01.25,115.71.25,74.63S29.8.25,66.25.25c21.84,0,41.2,11.97,53.21,30.39,8.57,12.05,13.71,27.34,13.71,43.99Z"/>
    </g>
    <g>
      <path class="cls-4" d="m119.46,30.64C107.45,12.22,88.09.25,66.25.25,29.8.25.25,33.55.25,74.63s29.55,74.38,66,74.38c21.84,0,41.2-11.97,53.21-30.39,8.57-12.05,13.71-27.34,13.71-43.99s-5.14-31.94-13.71-43.99Z"/>
      <ellipse class="cls-4" cx="71.81" cy="74.63" rx="61" ry="68.74"/>
    </g>
  </g>
  <g>
    <path class="cls-3" d="m126.73,74.63c0,18.73-9.83,35.16-24.61,44.42"/>
    <path class="cls-3" d="m46.6,30.21c-14.78,9.26-24.61,25.69-24.61,44.41s9.83,35.16,24.61,44.42"/>
    <line class="cls-3" x1="23.15" y1="74.63" x2="125.57" y2="74.63"/>
  </g>
</svg>