<svg stroke="currentColor" fill="currentColor" stroke-width="0" xmlns="http://www.w3.org/2000/svg" viewBox="-1.5 -1.5 16 16">
  <path d="m6.5,0C2.91,0,0,2.91,0,6.5s2.91,6.5,6.5,6.5,6.5-2.91,6.5-6.5S10.09,0,6.5,0Zm2.17,10.56c0,.15-.12.27-.27.27-.05,0-.11-.02-.15-.05l-2.29-1.52-2.29,1.52c-.12.08-.29.05-.38-.08-.03-.04-.05-.1-.05-.15v-6.23c0-.6.49-1.08,1.08-1.08h3.25c.6,0,1.08.49,1.08,1.08v6.23Zm1.08-1.08c0,.15-.12.27-.27.27-.05,0-.11-.02-.15-.05l-.12-.08V3.25c0-.3-.24-.54-.54-.54h-4.19c.19-.34.55-.54.94-.54h3.25c.6,0,1.08.49,1.08,1.08v6.23Z"/>
</svg>
